<svg xmlns="http://www.w3.org/2000/svg" viewBox="0 0 400 400" width="400" height="400">
  <defs>
    <linearGradient id="bg" x1="0" y1="0" x2="1" y2="1">
      <stop offset="0%" stop-color="#1e1840"/>
      <stop offset="100%" stop-color="#0b0a1d"/>
    </linearGradient>
    <radialGradient id="glow" cx="28%" cy="30%" r="55%">
      <stop offset="0%" stop-color="#7c3aed" stop-opacity="0.55"/>
      <stop offset="60%" stop-color="#7c3aed" stop-opacity="0.08"/>
      <stop offset="100%" stop-color="#7c3aed" stop-opacity="0"/>
    </radialGradient>
    <radialGradient id="accent" cx="75%" cy="78%" r="45%">
      <stop offset="0%" stop-color="#ec4899" stop-opacity="0.28"/>
      <stop offset="100%" stop-color="#ec4899" stop-opacity="0"/>
    </radialGradient>
  </defs>

  <rect width="400" height="400" fill="url(#bg)"/>
  <rect width="400" height="400" fill="url(#glow)"/>
  <rect width="400" height="400" fill="url(#accent)"/>

  <g transform="translate(46, 68) scale(7)" fill="none" stroke="#ffffff" stroke-width="2.1" stroke-linecap="round">
    <path d="M 5.5 4 C 5.6 13 5.8 22 6 31"/>
    <path d="M 14 3 C 14 12 13.8 21 13.5 30"/>
    <path d="M 22 5 C 22.1 14 22.3 22 22.5 31"/>
    <path d="M 30.5 4 C 30.6 13 30.4 22 30 30"/>
    <path d="M 1 32 C 12 26 25 18 40 8"/>
  </g>
</svg>
