<svg xmlns="http://www.w3.org/2000/svg" viewBox="0 0 1500 500" width="1500" height="500">
  <defs>
    <linearGradient id="bg" x1="0" y1="0" x2="1" y2="1">
      <stop offset="0%" stop-color="#1e1840"/>
      <stop offset="60%" stop-color="#120e2c"/>
      <stop offset="100%" stop-color="#0b0a1d"/>
    </linearGradient>
    <radialGradient id="glowViolet" cx="20%" cy="40%" r="45%">
      <stop offset="0%" stop-color="#7c3aed" stop-opacity="0.55"/>
      <stop offset="100%" stop-color="#7c3aed" stop-opacity="0"/>
    </radialGradient>
    <radialGradient id="glowRose" cx="82%" cy="30%" r="42%">
      <stop offset="0%" stop-color="#ec4899" stop-opacity="0.32"/>
      <stop offset="100%" stop-color="#ec4899" stop-opacity="0"/>
    </radialGradient>
    <radialGradient id="glowBlue" cx="70%" cy="85%" r="38%">
      <stop offset="0%" stop-color="#0284c7" stop-opacity="0.28"/>
      <stop offset="100%" stop-color="#0284c7" stop-opacity="0"/>
    </radialGradient>
  </defs>

  <rect width="1500" height="500" fill="url(#bg)"/>
  <rect width="1500" height="500" fill="url(#glowViolet)"/>
  <rect width="1500" height="500" fill="url(#glowRose)"/>
  <rect width="1500" height="500" fill="url(#glowBlue)"/>

  <g transform="translate(480, 115) scale(4.2)" fill="none" stroke="#ffffff" stroke-width="2.1" stroke-linecap="round">
    <path d="M 5.5 4 C 5.6 13 5.8 22 6 31"/>
    <path d="M 14 3 C 14 12 13.8 21 13.5 30"/>
    <path d="M 22 5 C 22.1 14 22.3 22 22.5 31"/>
    <path d="M 30.5 4 C 30.6 13 30.4 22 30 30"/>
    <path d="M 1 32 C 12 26 25 18 40 8"/>
  </g>

  <text x="690" y="200" font-family="'Helvetica Neue', Helvetica, Arial, sans-serif"
        font-size="132" font-weight="700" fill="#ffffff" letter-spacing="-4"
        dominant-baseline="central">Jauge</text>

  <text x="750" y="330" font-family="'Helvetica Neue', Helvetica, Arial, sans-serif"
        font-size="36" font-weight="500" fill="rgba(255,255,255,0.85)" text-anchor="middle"
        dominant-baseline="central">Vos droits, en clair.</text>

  <text x="750" y="388" font-family="'Helvetica Neue', Helvetica, Arial, sans-serif"
        font-size="20" font-weight="400" fill="rgba(255,255,255,0.55)" text-anchor="middle"
        dominant-baseline="central" letter-spacing="0.5">Simulateur CASC-SVP × FNAS · spectacle vivant · gratuit, sans inscription</text>
</svg>
